<svg width="44" height="44" viewBox="0 0 44 44" fill="none" xmlns="http://www.w3.org/2000/svg">
<path d="M43.3547 26.7007L36.2615 7.83758C36.2597 7.83391 36.2597 7.83025 36.2578 7.82658L36.256 7.82475C35.321 5.33692 32.9065 3.66675 30.25 3.66675C27.5935 3.66675 25.179 5.33691 24.2422 7.82658C23.9708 8.54891 23.8333 9.30975 23.8333 10.0834V18.3334H20.1667V10.0834C20.1667 6.54508 17.2883 3.66675 13.75 3.66675C11.0935 3.66675 8.679 5.33691 7.74217 7.82658C7.74033 7.83025 7.74033 7.83391 7.7385 7.83758L0.645333 26.6952L0.6435 26.6971C0.216333 27.8356 0 29.0291 0 30.2501C0 35.8106 4.52467 40.3334 10.0833 40.3334C15.642 40.3334 20.1667 35.8106 20.1667 30.2501V29.3334H23.8333V30.2501C23.8333 35.8106 28.358 40.3334 33.9167 40.3334C39.4753 40.3334 44 35.8106 44 30.2501C44 29.0291 43.7837 27.8356 43.3547 26.7007ZM10.0833 36.6667C6.545 36.6667 3.66667 33.7884 3.66667 30.2501C3.66667 29.4727 3.80417 28.7119 4.0755 27.9914C5.0105 25.5054 7.425 23.8334 10.0833 23.8334C13.6217 23.8334 16.5 26.7117 16.5 30.2501C16.5 33.7884 13.6217 36.6667 10.0833 36.6667ZM33.9167 36.6667C30.3783 36.6667 27.5 33.7884 27.5 30.2501C27.5 26.7117 30.3783 23.8334 33.9167 23.8334C36.575 23.8334 38.9895 25.5054 39.9245 27.9914C40.1958 28.7119 40.3333 29.4727 40.3333 30.2501C40.3333 33.7884 37.455 36.6667 33.9167 36.6667Z" fill="white"/>
</svg>
