<svg width="44" height="44" viewBox="0 0 44 44" fill="none" xmlns="http://www.w3.org/2000/svg">
<path d="M20.7821 25.5361L21.023 26.0603H22.9728L23.2134 25.5367C23.7852 24.2919 24.9731 23.4531 26.3014 23.3275L16.8713 10.0066L12.3446 23.0854C12.319 23.1591 12.3027 23.2346 12.291 23.3104H17.3472C18.8125 23.3104 20.1608 24.1841 20.7821 25.5361Z" fill="white"/>
<path d="M30.9417 23.3106L32.6255 19.5647C32.8125 19.1489 32.7659 18.6654 32.503 18.2929L25.6634 8.60337C25.4027 8.23429 24.9683 8.02806 24.5174 8.06106L18.9375 8.46442L29.4473 23.3106H30.9417Z" fill="white"/>
<path d="M18.4401 26.6131C18.2364 26.17 17.8123 25.8889 17.3477 25.8889H4.64959C4.18479 25.8889 3.76071 26.1701 3.55714 26.6133L0.122798 34.0894C-0.0607519 34.4889 -0.0372925 34.9605 0.184841 35.3372C0.406888 35.714 0.79633 35.9429 1.21525 35.9429H20.7839C21.6996 35.9497 22.265 34.8946 21.8763 34.0891L18.4401 26.6131Z" fill="white"/>
<path d="M43.8744 34.0891L40.4381 26.6131C40.2345 26.17 39.8104 25.8889 39.3458 25.8889H26.6476C26.1828 25.8889 25.7588 26.1701 25.5552 26.6133L22.1208 34.0894C21.9373 34.4889 21.9608 34.9605 22.1829 35.3372C22.4049 35.714 22.7944 35.9429 23.2133 35.9429H42.782C43.6977 35.9497 44.263 34.8946 43.8744 34.0891Z" fill="white"/>
</svg>
