<svg width="280" height="280" viewBox="0 0 280 280" fill="none" xmlns="http://www.w3.org/2000/svg">
<g clip-path="url(#clip0_167_10719)">
<g opacity="0.21">
<path d="M313.962 -18.8843L308.608 -15.9198L307.789 -15.1014L306.587 -13.7193L304.948 -10.4456L304.566 -9.11803L304.693 -8.04497L305.95 -6.40823L306.896 -4.38954L306.951 -2.67999L300.596 0.666412L292.602 3.19438L290.781 4.19463L289.524 5.26759L288.778 6.64979L288.341 7.77735L288.031 8.90491L287.776 11.051L287.467 11.6148L286.392 12.9424L285.518 14.652L284.644 15.8522L282.878 17.6891L281.439 18.6894L280.747 19.3805L280.11 20.5808L279.545 21.09L277.652 22.0358L274.957 21.9084L270.805 20.5808L264.577 17.9983L262.811 17.4891H261.682L260.607 18.744L259.606 19.5078L257.53 20.1444L256.583 19.9624L256.146 19.5806L256.328 18.944L257.148 17.9438L257.202 17.3073L256.82 16.6162L255.563 15.4886L254.689 15.3067L254.052 15.6158L253.615 17.58L253.105 18.3984L252.158 18.9622L250.519 19.144L249.773 18.8895L249.336 18.3257L249.281 16.998L248.971 16.3615L248.097 15.234L247.788 14.47L247.733 13.6517L248.043 11.5057L248.17 9.74155V9.10506L247.606 8.34113L246.604 7.52283L244.146 6.0678L242.817 5.43131L241.615 5.12217L240.54 4.94024L239.794 4.37645L239.484 3.04886L239.229 2.35776L238.537 1.53934L237.59 0.593704L236.334 -0.297539L234.95 -1.55242L236.716 -1.98888L237.099 -2.24342V-3.31647L236.844 -4.95332L235.514 -10.3183L234.567 -11.7005L232.364 -12.4644L231.672 -14.4285L229.341 -18.3932L229.214 -19.7754L229.724 -20.9758L230.416 -22.1761L230.98 -23.3764L231.108 -24.1402L231.235 -26.4136L232.492 -28.4869L232.747 -28.6687L232.237 -30.8147L229.724 -35.616L228.904 -37.9439L230.926 -38.5077L231.927 -38.5623L233.001 -38.3804L233.821 -37.8167L234.13 -37.0527L234.567 -36.489L235.697 -36.4345L238.337 -38.2713L242.416 -38.2167L249.773 -37.2165L249.081 -38.5441L253.36 -37.5983L255.181 -38.1076L256.82 -40.3082L257.821 -43.1453L259.205 -45.2185L261.154 -46.4189L263.794 -46.6007L270.331 -46.0916L273.482 -46.4734L276.632 -47.7283L278.708 -49.1105L284.553 -54.9848L287.248 -58.3858L289.506 -59.968L290.508 -60.9137L291.072 -62.1685L293.658 -64.8783L298.684 -67.4063L300.068 -67.8428L300.122 -66.8425L301.688 -46.3461L302.635 -42.3814L303.892 -40.1809L308.736 -36.9073L310.065 -35.4523L311.321 -33.4882L311.959 -31.524L312.523 -27.5593L313.088 -26.0498L313.725 -24.7949L314.472 -23.7947L314.781 -22.9036V-21.8305L313.907 -18.9207L313.962 -18.8843Z" fill="#E6E7E8" fill-opacity="0.4" stroke="white" stroke-miterlimit="10"/>
<path d="M96.6436 270.665L95.642 271.174L94.8955 270.41L96.6618 268.391L97.0442 268.337L97.0988 269.337L96.5343 269.846L96.6618 270.665H96.6436ZM-19.9896 195.99L-21.6285 196.499L-21.6831 195.044L-22.4297 194.226L-19.4069 193.844L-18.4053 194.226L-19.3522 195.172L-19.9896 195.99ZM55.781 163.018V163.709L54.7066 162.636L55.1437 159.853L55.7082 159.726L55.5807 160.926L55.8356 162.308L55.781 163V163.018ZM81.1107 150.396L80.5462 151.596L79.4172 152.033L78.5431 151.596H77.2867L77.0317 151.16L77.5962 150.469L78.3428 149.832L79.2897 149.323L80.4916 149.832L81.1289 150.396H81.1107ZM482.289 -182.547L482.471 -181.856L481.342 -182.038L480.832 -182.984L480.65 -183.93L481.16 -183.748L481.906 -182.802L482.289 -182.547ZM462.495 -337.771L461.493 -337.643L460.364 -338.025L459.672 -338.462L459.727 -338.844L460.291 -339.353L462.422 -339.407L463.369 -338.971L463.678 -338.407L462.477 -337.771H462.495ZM412.254 -386.966L411.817 -386.711L411.38 -387.402L409.814 -388.475L409.687 -389.239L409.177 -389.675L408.048 -389.93L407.866 -390.694L408.813 -391.385L409.45 -391.512L412.036 -389.494L412.291 -388.602V-386.966H412.254ZM189.768 -695.684L189.258 -695.503L188.566 -696.448V-697.085L188.876 -697.394L189.823 -697.576L190.26 -697.194L190.314 -696.685L189.75 -695.684H189.768ZM344.022 -765.43L343.767 -765.121L343.021 -765.303L342.766 -765.558L343.148 -765.994L343.84 -766.431L344.35 -766.485L344.041 -765.412L344.022 -765.43ZM320.441 -819.608L319.312 -819.045L320.186 -820.118L320.878 -821.191L321.133 -820.5L320.441 -819.608ZM364.272 -866.294L363.762 -866.112L362.76 -866.239L362.068 -866.676L362.123 -867.185L363.325 -867.621L363.889 -867.676L364.399 -867.421L364.527 -866.785L364.272 -866.275V-866.294Z" fill="#E6E7E8" fill-opacity="0.4" stroke="white" stroke-miterlimit="10"/>
<path d="M232.42 -12.4491L234.623 -11.6852L235.57 -10.3031L236.899 -4.938L237.154 -3.30115V-2.2282L236.772 -1.97356L235.006 -1.5371L232.11 3.70068L230.544 5.59216L229.725 6.28315L228.395 7.61086L227.703 8.6111L225.445 13.4669L224.936 15.0491L224.626 16.7587L224.499 20.1596L224.626 21.5418L224.936 22.9967L225.445 24.2516L226.392 26.0885L226.902 26.7796L227.54 28.2345L227.922 29.6895L228.796 30.7625L230.18 31.7627L231.309 33.1449L232.056 35.9275L231.109 41.0925L230.471 42.802L229.524 44.6935L228.705 45.8938L226.374 48.3489L223.424 45.6938L222.295 45.0572L221.166 44.6207L220.656 44.8026L220.401 45.3664L220.529 46.8213L220.347 47.5124L219.655 48.0216L212.608 50.1676L211.406 50.1131L210.586 49.9312L209.894 49.3674H210.768L211.333 48.8582L210.386 47.0941L209.002 42.1109L208.001 40.6015L206.489 39.4738L205.051 39.2193L203.721 39.9831L202.72 41.8745L201.846 40.1104L200.717 38.6555L197.767 36.0729L196.437 34.618L194.361 31.3444L193.105 30.2169L188.571 29.0893L186.804 27.7617L185.858 25.3065L185.675 23.4151L184.546 22.724L183.163 22.4148L182.034 21.5236L181.979 20.2687L183.363 13.7033L184.31 10.7389L184.565 9.41132L184.437 8.08373L183.108 3.48244L183.29 1.20911L183.235 0.0815449L182.798 -0.918701L181.851 -1.6098L179.593 -2.04626L178.592 -2.61005L177.463 -4.44692L177.718 -6.21109L178.719 -7.7205L179.848 -8.97538L181.797 -10.6122L183.235 -10.9214L187.26 -9.41185L189.718 -9.28464L190.72 -10.5395L191.539 -12.3763L193.924 -14.8316L194.361 -15.9045L194.616 -17.1049L194.671 -18.3052L196.619 -20.4512L200.589 -19.7601L204.996 -18.378L208.51 -18.3234L214.429 -16.4865L216.122 -15.5409L216.759 -14.7769L217.961 -12.8856L218.708 -12.249L219.837 -12.0671L224.681 -13.322L225.555 -13.3766L226.429 -13.2493L227.631 -12.8674L229.452 -11.4852L230.581 -10.9214L231.655 -10.976L232.402 -12.3582L232.42 -12.4491Z" fill="#E6E7E8" fill-opacity="0.4" stroke="white" stroke-miterlimit="10"/>
<path d="M258.315 113.933L257.113 114.115L256.603 113.733L255.857 112.66L254.218 111.969L243.092 109.896L239.013 108.131L240.342 108.004L243.238 109.259L245.495 109.768L255.311 109.896L257.132 110.459L259.08 110.969L259.827 111.478L260.081 112.605L259.572 113.297L258.315 113.933ZM247.826 95.9101L249.156 95.0917L250.103 93.9641L250.74 92.6365H251.304L251.741 93.8368L251.924 95.219L252.561 96.2192L254.254 96.1647L254.946 95.4736L256.276 93.1457L257.15 92.6365L258.588 93.1457L259.535 94.4005L260.227 95.9101L260.974 97.1103L262.103 98.3652L262.613 99.6201L263.25 107.186L262.868 109.077L261.538 109.896L259.899 109.768L255.438 108.695L246.388 108.75L240.16 107.495H236.955L235.316 107.113L233.932 106.349L232.676 105.84L231.419 106.277L230.545 105.713L227.723 104.585L226.648 104.403L225.574 104.349L224.573 104.476L220.293 106.058L219.219 106.24L214.812 106.113L212.736 106.422L208.839 107.931L207.2 108.059H204.505L202.43 107.622L198.351 106.113L196.967 105.931H195.637L194.308 106.113L193.052 106.622L191.613 107.695L191.486 108.768L186.642 108.586L182.49 107.641L182.108 107.204L181.598 103.93L181.907 103.239L182.417 102.421L183.237 101.857L190.976 92.0727L191.722 90.054L192.159 88.4717V85.6892L195.546 85.871L199.625 86.5621L202.011 86.5076L203.777 86.1256L204.651 85.4345L206.163 83.4158L207.729 82.5247L209.495 82.3428L218.418 82.8521L219.929 83.1067L221.003 83.7432L222.132 84.6889L225.72 89.7994L226.849 90.5632L228.36 91.1997L230.746 91.5816L232.075 92.1454L232.894 92.8365L233.204 93.6549V94.4734L232.949 96.2374L233.131 97.0558L233.878 97.6196L235.08 97.8743L239.049 97.565L241.562 97.8743L245.204 97.8197L247.153 96.9285L247.79 95.9283L247.826 95.9101Z" fill="#E6E7E8" fill-opacity="0.4" stroke="white" stroke-miterlimit="10"/>
<path d="M332.695 15.234L332.058 15.3613L330.984 16.0524L330.164 16.9435L329.29 18.1984L327.469 21.5447L326.267 24.3273L324.319 27.5463L323.882 28.4375L323.008 30.8927L321.369 33.8025L320.422 36.2031L320.04 38.5311L319.348 39.986L317.964 42.2593L317.399 43.4596L318.346 44.8418L319.912 46.0422L321.351 46.6787L323.117 46.8606L324.629 46.6787L326.012 46.806L327.141 47.4971L328.216 48.57L329.217 50.2796L330.037 52.0438L330.856 54.4989L331.166 57.1542L331.038 59.8095L329.909 62.2647L328.708 64.1015L324.738 68.0662L321.842 64.4107L320.968 64.156L319.712 64.1015L318.71 64.8653L316.762 66.8295L311.226 73.7587L309.842 74.3951L308.513 74.5225L307.311 74.086L306.237 73.3222L305.545 72.322L305.29 71.2489L305.344 70.0486L305.527 68.9209L305.272 67.848L304.58 67.0296L303.323 66.5204L302.322 66.5749L301.193 66.9569L293.526 70.6124L293.089 71.1216V72.5038L292.834 74.2133L292.015 75.1591L290.576 76.0502L284.094 78.5054L282.764 78.6327L282.637 76.7958L281.763 75.4136L279.25 73.0858L278.868 74.3406L279.742 75.2863L280.943 76.1047L281.581 76.9231L280.834 79.0691V79.5784L280.452 79.5238H279.887L279.323 81.9791L279.268 84.6343L278.194 83.1247L277.556 81.2334L275.918 79.5238L274.406 78.1962L273.277 77.0686L271.456 75.6137H270.327L268.197 76.6867L266.685 76.432L265.119 75.3045L264.172 74.3588L263.098 73.7951L261.532 73.1585L260.585 72.9038L259.893 72.522L259.838 71.0671L259.529 69.9394L259.401 67.9753L259.092 66.9022L259.656 66.6476L262.679 68.3572L263.499 68.2299L264.318 67.5934L265.32 67.0296L266.011 66.8477L267.705 66.7931L268.342 66.9751L269.599 67.6116L270.473 67.5569L270.418 66.4294L270.801 65.8656L270.855 64.6107L270.473 63.1558L268.087 58.6819L266.649 56.6631L266.339 54.0807L265.01 52.2438L264.063 51.2435L263.371 50.2433L262.497 48.6065L262.442 47.9154L262.497 46.2786L262.187 44.6418L262.497 43.878L263.626 42.9322L264.828 42.3684L265.902 42.0593L266.776 42.1866L267.468 42.5685L268.288 43.3324L269.162 44.0234L270.236 44.5327L271.311 44.7145L272.312 44.66L273.186 44.3508L276.773 41.3864L278.285 38.6766L278.594 37.6035L278.467 36.276L277.593 33.566L276.719 32.0566L275.899 31.0564L275.153 30.5471L274.77 29.656L275.025 28.2011L277.666 22.2176L279.56 21.2719L280.124 20.7627L280.761 19.5624L281.453 18.8713L282.892 17.871L284.658 16.0342L285.532 14.8338L286.406 13.1242L287.481 11.7967L287.79 11.2329L288.045 9.08685L288.355 7.95929L288.792 6.83173L289.538 5.44952L290.795 4.37646L292.616 3.37621L300.61 0.848239L306.965 -2.49805L310.243 -1.93426L312.628 -1.98888L313.757 -1.60692L314.067 -0.788495L314.012 1.41202L314.067 2.10312L314.631 2.79423L315.578 3.10337L317.144 3.48533L318.965 4.12193L319.785 4.81292L320.167 5.63134L319.858 6.44977L318.656 7.70465L318.474 8.39575L318.528 9.34149L318.965 10.5418L319.603 11.1055L320.604 11.4147L321.934 11.3602L325.648 11.7967L332.695 15.3976V15.234Z" fill="#E6E7E8" fill-opacity="0.4" stroke="white" stroke-miterlimit="10"/>
<path d="M127.843 56.2256L128.407 60.2631L128.789 61.5907L129.427 62.7182L130.629 63.664L131.138 65.9918L134.416 69.5928L134.726 70.2838L135.108 72.248L136.11 72.7573L139.624 72.5754L141.573 72.7027L142.21 75.6671L142.337 76.6129L142.083 79.268L142.337 80.5958L143.084 81.7233L144.468 82.7963L153.081 87.0884L153.955 87.7795L154.775 88.5978L155.412 89.5436L156.978 92.5625L157.67 93.5082L158.362 94.1448L159.801 95.036L155.594 98.8187L152.207 104.875L152.025 106.948L150.459 109.913L149.257 110.295L147.746 109.858L146.744 110.113L145.797 110.749L143.284 113.15L142.283 113.586L141.463 113.532L140.826 112.895L139.26 110.876L138.441 110.113L137.366 109.804L136.856 109.985L136.474 111.186L135.909 111.822L134.398 112.332L133.451 112.841L132.705 113.477L130.629 116.496L100.455 100.601L86.4883 88.5615L90.6947 89.0707L94.537 88.8889L97.6144 87.6885L99.6903 85.5425L103.15 80.1229L104.152 78.9953L105.281 78.0496L113.639 73.7575L115.715 71.7388L115.66 68.9562L112.637 63.2093L111.253 59.9902L110.999 56.9713L111.563 55.5891L112.51 54.3342L113.639 53.2611L114.768 52.4427L116.662 51.4971L117.172 51.8062L117.354 53.0065L118.355 54.3342L119.557 54.716L127.861 56.2983L127.843 56.2256Z" fill="#E6E7E8" fill-opacity="0.4" stroke="white" stroke-miterlimit="10"/>
<path d="M182.492 107.64L184.75 110.605L185.26 112.878L185.515 113.187L186.844 113.751L187.791 114.569L188.101 115.26L188.155 116.079L188.101 117.534L187.664 118.916L186.917 119.916L185.224 121.116L184.095 121.626L182.583 121.807L179.943 121.371L177.685 120.68L175.609 119.68L172.968 117.916L172.149 117.734L171.202 118.043L170.456 118.679L170.146 119.371L170.401 120.189L170.528 121.389L169.144 123.153L163.864 125.045L154.813 127.009L146.127 130.101L139.972 123.535L137.714 121.517L133.381 118.679L130.686 116.479L132.761 113.46L133.508 112.823L134.455 112.314L135.966 111.805L136.531 111.168L136.913 109.968L137.423 109.786L138.497 110.095L139.317 110.859L140.883 112.878L141.52 113.514L142.34 113.569L143.341 113.132L145.854 110.732L146.801 110.095L147.803 109.841L149.314 110.277L150.516 109.895L152.082 106.931L152.264 104.857L155.651 98.8014L159.857 95.0186L164.009 97.5465L165.138 97.9284L168.653 98.1103L169.782 98.3648L170.783 98.8741L171.657 99.5106L175.5 103.93L176.829 105.13L178.34 106.076L182.547 107.658L182.492 107.64Z" fill="#E6E7E8" fill-opacity="0.4" stroke="white" stroke-miterlimit="10"/>
<path d="M154.697 51.0067L155.006 52.6435L155.88 53.7711L156.827 54.5349L159.085 55.9898L160.414 57.2447L165.768 63.6828L183.941 80.9602L188.785 84.4883L192.172 85.6887V88.4712L191.735 90.0535L190.989 92.0722L183.249 101.857L182.43 102.42L181.92 103.239L181.611 103.93L182.12 107.204L182.503 107.64L178.296 106.058L176.785 105.112L175.456 103.912L171.613 99.4923L170.739 98.8558L169.738 98.3466L168.609 98.092L165.094 97.9101L163.965 97.5282L159.814 95.0002L158.375 94.1091L157.683 93.4725L156.991 92.5269L155.425 89.5078L154.788 88.5622L153.968 87.7438L153.094 87.0527L144.481 82.7606L143.097 81.6876L142.35 80.56L142.095 79.2324L142.35 76.5771L142.223 75.6314L141.586 72.6669L139.637 72.5397L136.123 72.7216L135.121 72.2123L134.739 70.2482L134.429 69.5571L131.151 65.9562L130.642 63.6282L129.44 62.6825L128.802 61.5549L128.42 60.2273L127.855 56.1898L131.625 56.8809L132.954 57.7722L135.904 60.3546L137.161 60.7911L137.98 59.9727L140.493 54.7349L143.953 50.6975L145.027 49.9336L145.464 50.1155L147.85 50.8066L149.744 51.8069L150.435 51.8615L154.715 50.9157L154.697 51.0067Z" fill="#E6E7E8" fill-opacity="0.4" stroke="white" stroke-miterlimit="10"/>
<path d="M277.691 22.0528L275.051 28.0362L274.796 29.4911L275.178 30.3823L275.925 30.8915L276.744 31.8918L277.618 33.4013L278.492 36.1111L278.62 37.4387L278.31 38.5118L276.799 41.2216L273.212 44.186L272.338 44.4951L271.336 44.5497L270.262 44.3678L269.187 43.8586L268.313 43.1675L267.494 42.4037L266.802 42.0218L265.928 41.8945L264.853 42.2036L263.651 42.7675L262.522 43.7131L262.213 44.4769L262.522 46.1138L262.468 47.7506L262.522 48.4417L263.397 50.0785L264.089 51.0787L265.035 52.0791L266.365 53.9158L266.674 56.4984L263.524 55.9346L262.522 56.1892L259.318 57.3168L257.988 57.626L256.914 57.5714L256.094 57.1349L254.965 55.3708L252.835 52.5337L251.141 49.6966L248.191 45.8409L248.064 44.5133L247.937 44.0042L247.499 43.7495H245.861L245.114 43.4404L244.367 42.44L240.653 36.202L239.906 35.3836L239.214 34.8744L237.885 34.8198L236.81 34.8744L232.039 35.8747L231.293 33.0922L230.164 31.71L228.78 30.7097L227.906 29.6366L227.523 28.1817L226.886 26.7268L226.376 26.0357L225.429 24.1989L224.919 22.944L224.61 21.4891L224.482 20.1068L224.61 16.7059L224.919 14.9964L225.429 13.4142L227.687 8.55824L228.379 7.558L229.709 6.2304L230.528 5.5393L232.094 3.64793L234.989 -1.58984L236.373 -0.334959L237.63 0.556171L238.577 1.50191L239.269 2.32023L239.524 3.01133L239.833 4.33903L240.58 4.90281L241.654 5.08464L242.856 5.39378L244.185 6.03038L246.644 7.48529L247.645 8.30371L248.21 9.06752V9.70401L248.082 11.4682L247.773 13.6142L247.827 14.4326L248.137 15.1964L249.011 16.324L249.32 16.9606L249.375 18.2882L249.812 18.852L250.559 19.1066L252.198 18.9247L253.145 18.3609L253.654 17.5425L254.091 15.5784L254.729 15.2691L255.603 15.4511L256.859 16.5786L257.242 17.2697L257.187 17.9062L256.368 18.9065L256.186 19.5431L256.623 19.9249L257.569 20.1068L259.645 19.4702L260.647 18.7064L261.721 17.4516H262.85L264.617 17.9608L270.844 20.5433L274.996 21.8709L277.691 21.9982V22.0528Z" fill="#E6E7E8" fill-opacity="0.4" stroke="white" stroke-miterlimit="10"/>
<path d="M297.994 95.7084L298.686 96.836L297.485 96.1449H296.92L296.665 97.2725L295.463 98.0909L294.826 99.8004L294.006 100.31L292.24 100.946L291.038 102.019L289.217 104.674L288.088 105.747L286.959 101.455L287.396 99.8186L290.856 98.9274L293.442 97.5998L293.952 97.0906L294.006 96.1994L294.261 95.0718L294.644 94.0716L295.336 93.4351L297.976 95.7084H297.994ZM280.513 79.4495L280.895 79.504V80.1406L281.97 80.6498L282.844 81.2864L282.589 82.7413L281.642 84.8873L281.897 85.5238L282.971 86.5242L282.844 87.288L282.279 87.4153L281.533 86.9788L280.531 86.0876L281.169 85.5238L279.967 84.2689V83.7052L280.404 82.9413L280.531 81.9411V79.4858L280.513 79.4495ZM324.781 68.0282L330.135 80.3952L330.772 83.9234L329.388 84.9237L327.13 87.1971L326.693 88.1427L326.001 89.2158L324.362 90.216L318.899 92.6712L317.388 93.1077L313.545 93.5442L310.158 94.6172L309.212 94.3626L308.52 95.3083L306.007 97.6362L303.931 100.91L302.419 100.855L299.142 98.8911L296.938 98.5818L297.321 97.818L298.759 97.3089L299.269 96.7996L299.214 95.9812L298.777 95.2174L298.213 94.5809L297.393 94.0171L295.7 92.2529L294.444 92.3075L293.442 92.1802L292.805 91.9256V93.1805H292.295L291.166 91.9802L289.472 91.1618L287.706 91.0344L286.322 91.9256H285.812L286.067 90.7253L285.812 89.5977L284.993 91.3072L284.355 92.0711L283.408 92.5803L282.899 90.8707L282.844 90.1796L282.407 89.2885L282.844 88.9793L283.481 88.0336L283.609 87.1425L283.427 80.9591L283.172 80.3952L282.043 79.1949L281.988 78.5038L282.862 78.8858V78.5038L284.191 78.3765L290.674 75.9213L292.113 75.0302L292.932 74.0844L293.187 72.3749V70.9927L293.624 70.4835L301.29 66.828L302.419 66.446L303.421 66.3915L304.677 66.9007L305.369 67.7191L305.624 68.7922L305.442 69.9197L305.388 71.12L305.642 72.1931L306.334 73.1933L307.409 73.9571L308.611 74.3936L309.94 74.2663L311.324 73.6298L316.86 66.7007L318.808 64.7365L319.81 63.9727L321.066 64.0272L321.94 64.2818L324.836 67.9373L324.781 68.0282Z" fill="#E6E7E8" fill-opacity="0.4" stroke="white" stroke-miterlimit="10"/>
<path d="M282.407 89.3436L282.844 90.2347L281.642 90.8712L280.95 91.3805L280.513 92.017H279.949L280.204 90.6894L281.023 89.9256L282.407 89.3618V89.3436ZM276.234 89.7254L275.851 92.3807L274.03 96.8547H274.668L275.232 95.6543L277.053 96.8547L278 97.6185L278.747 98.6187L274.595 99.619L272.829 100.383L271.7 101.583H271.135V100.001L270.698 98.8007L270.188 97.8003L269.933 96.8547L270.188 95.2724L271.517 93.381L271.7 91.9988H271.135V93.2536L270.388 91.2349L271.135 89.9074L272.701 89.0889L274.467 88.5252L276.234 89.7254ZM274.049 83.3601L274.231 84.3058L274.613 85.2516L274.668 86.07L274.03 86.6338L273.593 86.3245L273.084 85.5062L272.337 83.6693H271.7L271.955 84.7969L272.701 86.3791L272.883 87.5067L272.373 88.4524L271.244 88.1432L270.043 87.3249L269.351 86.6338L268.349 84.9969V84.1058L269.168 83.4147L269.678 80.9595L269.369 80.1411L268.167 79.45V78.9407L269.114 78.6862L270.243 78.5589L271.117 78.6134L271.244 79.25L273.193 80.5776L273.63 81.3414L274.631 81.8507L274.686 82.5418L273.994 83.3601H274.049ZM269.077 91.4896L269.951 93.2536V93.8174L268.568 93.4356L267.439 92.9263L266.364 92.7445L265.29 93.2536L265.727 93.5083L266.419 93.2536L267.748 94.454L268.695 96.2909L268.64 97.9276L267.074 98.6187L264.998 97.8003L262.923 95.8362L261.102 93.4356L260.1 91.4169L259.79 90.0347V88.9616L260.1 86.6338L259.79 85.9427L259.536 84.5605L259.845 84.3058L261.229 84.0512L261.794 83.6693L262.431 81.5233L261.794 79.5045L259.536 75.9036H261.484L262.303 76.1582L263.05 76.922L263.797 78.1769L264.306 78.6862L266.637 79.3772L267.712 80.4503L268.222 81.7779V83.0327L267.657 83.5965L267.22 84.1603L267.093 85.1607L268.222 86.9247L269.423 87.8158L269.806 89.0162L269.168 90.0892L267.093 90.2165V90.853L268.422 90.9076L269.114 91.4714L269.077 91.4896ZM266.692 56.5529L268.13 58.5716L270.516 63.0456L270.898 64.5005L270.844 65.7554L270.461 66.3192L270.516 67.4467L269.642 67.5014L268.385 66.8649L267.748 66.6829L266.055 66.7376L265.363 66.9194L264.361 67.4832L263.542 68.1196L262.722 68.247L259.699 66.5374L259.135 66.7921L259.444 67.8651L259.572 69.8292L259.881 70.9569L259.936 72.4118L260.628 72.7936L261.575 73.0483L263.141 73.6849L264.215 74.2487L265.162 75.1943L266.728 76.3219L268.24 76.5765L270.37 75.5035H271.499L273.32 76.9585L274.449 78.086L275.961 79.4136L277.6 81.1232L278.237 83.0145L279.311 84.5241L280.003 86.852L281.642 88.4342L280.204 89.198L278.31 92.5444L277.563 93.2355L277.053 92.799L277.181 92.0352L277.49 91.0894L277.545 90.1983L277.163 89.3072L276.288 88.5434L275.779 87.7795L275.342 86.07L275.396 84.4877L275.779 81.5233L270.552 77.0494L267.73 78.5043L266.036 78.9407L265.29 77.9951L264.78 77.0494L263.706 75.7218L262.376 74.5942L261.247 74.0849L259.117 75.158L258.607 75.5398L258.17 76.5401L258.807 77.1039L259.627 77.4858L260.064 77.9951L260.246 78.8134L261.247 81.2687L260.938 82.2689L259.499 83.5965L258.807 85.7425L258.37 84.9242V84.1603L258.752 81.5778L258.807 79.9956L258.243 78.7953L257.168 77.795L255.966 77.1039L254.837 76.8493L253.963 76.9038L252.324 77.9041L251.505 78.3407L250.376 78.1587L249.502 77.4676L248.373 76.2673L247.426 75.5762L243.657 73.994L239.942 71.9753L238.376 70.8476L237.556 69.7201L237.738 68.5925L238.303 67.1376L239.942 63.9185L240.251 61.8998L240.124 59.6993L238.995 56.6803L237.666 54.8434L236.027 53.2612L234.461 52.1882L232.512 51.1879L229.18 49.8603L226.357 48.278L228.688 45.8229L229.508 44.6225L230.455 42.7311L231.092 41.0216L232.039 35.8565L236.81 34.8563L237.884 34.8018L239.213 34.8563L239.905 35.3655L240.652 36.1839L244.367 42.422L245.113 43.4222L245.86 43.7314H247.499L247.936 43.986L248.063 44.4952L248.191 45.8229L251.141 49.6784L252.834 52.5156L254.965 55.3527L256.094 57.1167L256.913 57.5532L257.988 57.6078L259.317 57.2987L262.522 56.1711L263.523 55.9165L266.674 56.4802L266.692 56.5529Z" fill="#E6E7E8" fill-opacity="0.4" stroke="white" stroke-miterlimit="10"/>
<path d="M25.1026 94.6347L25.4851 95.0166L31.7128 101.582L31.9677 103.092V112.294L28.69 120.678L27.561 125.479L29.0724 127.807L28.435 129.644V130.717L28.7446 131.663L29.0542 133.172L27.6702 132.408L27.2878 131.972L25.5943 131.208L24.3925 127.352L23.2635 120.042L21.0055 113.476L19.312 110.694L16.8537 108.675L13.5759 107.038L12.5015 105.91L11.8096 102.437L11.5 101.546L11.937 101.291L17.3453 102.055L18.9842 101.928L19.7308 101.236L20.8052 99.4724L21.9342 98.8358L22.1891 98.0174L22.3712 97.0171L22.6261 96.126L23.2635 95.3622L24.0829 94.6711L25.0844 94.6165L25.1026 94.6347ZM86.4693 88.524L100.436 100.564L130.61 116.459L133.305 118.659L137.639 121.496L139.897 123.515L146.051 130.08L150.021 134.245L151.715 135.627L154.3 138.028L154.865 138.974L155.047 140.047L155.102 141.884L154.847 144.157L154.282 146.23L152.953 148.249L143.138 157.579L141.317 159.725L140.807 161.362L141.244 162.253L142.118 163.017L143.502 164.908L143.447 169.764L137.602 168.382L136.091 168.127L135.217 168.564L134.907 169.691L136.236 174.238L136.419 175.947L135.599 177.457L134.033 179.785L133.724 180.785L134.106 181.912L135.235 183.368L135.49 183.804L135.107 184.75L133.851 185.441L130.519 184.495L117.499 177.93L113.474 175.347L112.036 174.838L109.65 175.02L108.266 174.765L107.392 174.638L106.646 175.02L106.263 175.456L105.571 175.638L104.57 175.765L102.621 175.456L100.291 176.657L99.1615 176.602L95.8291 174.274L95.9566 172.383L97.7776 156.615L99.1069 151.814L100.873 146.776L104.843 146.903L107.483 146.521L108.048 145.012L109.432 143.557L114.713 139.592L116.534 138.774L117.408 139.41L117.663 140.792L119.684 146.285V145.03L119.174 141.811V137.955L118.609 136.064L117.48 134.1L113.638 129.062L110.306 125.843L108.612 124.843L106.919 124.661L103.586 125.479L101.565 125.425L98.7973 123.788L96.8489 121.078L95.0825 118.114L93.389 115.84L90.5665 114.131L87.744 113.749L85.049 114.513L82.8456 116.477L82.536 117.368V118.132L82.3539 118.696L81.407 118.878L80.8972 119.259L80.5148 120.969L80.2598 121.351L77.237 121.169L76.9821 121.351L76.5451 120.532L77.0549 119.332L77.0003 118.332L76.6179 117.768L75.4889 116.44L75.234 115.622V113.221L74.9244 111.203L74.1049 110.002L71.7741 108.166L71.2096 109.366H70.5176L70.463 106.965L69.589 105.256L67.6951 102.8L67.2581 101.673L68.1322 101.491L68.8241 100.982L69.5161 99.9815L69.9531 99.1631V98.272L69.5161 97.3809H68.8241L68.1868 98.7085L67.2399 99.7815L66.1655 100.545L64.727 100.982L63.3977 100.854L63.343 99.9088L63.598 98.4539L63.2156 97.3809L64.727 97.69L65.9834 97.5082L66.8575 96.6898L70.4448 91.452L71.1368 90.0698L71.9562 88.8149L73.0306 87.9238L74.4145 87.6146L78.0565 87.4873L86.4875 88.5604L86.4693 88.524Z" fill="#E6E7E8" fill-opacity="0.4" stroke="white" stroke-miterlimit="10"/>
<path d="M226.372 48.3494L229.194 49.9317L232.527 51.2594L234.475 52.2596L236.041 53.3327L237.68 54.9149L239.009 56.7517L240.138 59.7707L240.266 61.9713L239.956 63.99L238.317 67.209L237.753 68.664L237.571 69.7916L238.39 70.9192L239.956 72.0467L243.671 74.0654L247.441 75.6476L248.387 76.3387L249.516 77.5391L250.391 78.2302L251.52 78.4121L252.339 77.9756L253.978 76.9753L254.852 76.9207L255.981 77.1754L257.183 77.8665L258.257 78.8667L258.822 80.067L258.767 81.6492L258.385 84.2318V84.9956L258.822 85.814L258.567 86.887L257.929 88.3965L256.855 89.033L254.087 90.0334L252.703 89.9788L251.884 88.4692H251.246L251.556 89.7241L252.375 90.8517L251.428 91.0336L250.482 91.4701L249.735 92.1612L249.098 93.9252L248.224 94.4345L247.095 94.871L246.02 95.6348L246.075 94.1799L245.82 93.0523L245.383 92.1612L244.818 91.3974L244.946 94.4163L245.383 95.6712L246.257 96.1077L247.768 95.853L247.131 96.8534L245.183 97.7445L241.541 97.799L239.028 97.4899L235.058 97.799L233.856 97.5445L233.11 96.9807L232.927 96.1623L233.182 94.3981V93.5797L232.873 92.7614L232.053 92.0703L230.724 91.5065L228.339 91.1245L226.827 90.488L225.698 89.7241L222.111 84.6137L220.982 83.668L219.907 83.0314L218.396 82.7769L209.473 82.2676L207.707 82.4494L206.141 83.3407L204.63 85.3594L203.755 86.0505L201.989 86.4323L199.604 86.4869L195.525 85.7958L192.138 85.614L188.751 84.4136L183.907 80.8854L165.734 63.6081L160.38 57.17L159.051 55.9151L156.793 54.4602L155.846 53.6963L154.972 52.5688L154.662 50.932L163.913 48.9678L165.861 48.0767L169.503 45.8034L171.961 45.1123L174.219 45.3669L175.658 47.0036L177.169 49.6589L180.065 53.6963L180.702 55.024L181.649 58.043L182.341 59.2978L183.47 60.68L184.981 61.6803L186.748 61.6258L187.567 60.8074L188.569 59.0432L189.315 57.1518L189.443 55.6969L192.338 58.0248L194.669 60.8074L196.872 62.3896L199.258 63.5899L201.461 64.4083L206.305 64.9176L208.563 65.4814L210.457 66.9908L208.253 58.6614L206.177 54.6239L205.74 53.1689L205.868 52.9871L205.995 50.7865L205.813 50.6047L206.56 49.4043L208.071 49.2225L209.892 49.277L210.584 49.8408L211.404 50.0227L212.605 50.0772L219.653 47.9312L220.345 47.422L220.527 46.7309L220.399 45.2759L220.654 44.7121L221.164 44.5303L222.293 44.9667L223.422 45.6033L226.372 48.2585V48.3494Z" fill="#E6E7E8" fill-opacity="0.4" stroke="white" stroke-miterlimit="10"/>
<path d="M241.778 147.94L241.031 148.704L239.829 147.94L237.753 144.721L235.295 143.393L231.398 139.665L231.78 139.41L233.164 139.665L236.806 142.32L237.808 143.321L240.63 146.158L241.759 147.922L241.778 147.94ZM231.398 106.311L236.296 109.402L256.855 116.459L257.292 116.768L258.676 117.968L259.623 118.478L260.625 119.296L262.391 119.478L263.028 119.732L263.411 120.169L263.538 120.933L263.356 122.952L262.846 124.279L258.257 129.135L256.873 129.953L255.435 129.572L255.872 128.935L255.927 128.117L255.799 127.298L255.417 126.534H254.779L254.397 128.044L254.215 128.353L253.086 129.553L252.576 130.244L252.394 131.008L253.341 132.008L253.723 132.772L253.341 133.154L252.011 133.282L251.702 133.718L251.756 134.282L251.119 135.1L250.937 135.791L250.373 136.1L247.168 135.973L245.784 135.464L244.527 134.573L243.398 133.445L242.069 132.5L237.79 130.663L235.331 128.644L233.128 125.989L226.026 114.568L223.568 112.112L220.235 111.039L220.673 111.548L221.547 111.93L224.132 113.949L225.134 115.077L225.88 118.423L226.755 120.26L234.676 130.663L236.624 132.5L243.234 135.591L247.696 139.12L252.539 141.702L253.869 142.011L254.688 142.775L254.433 144.539L253.559 146.376L252.357 147.449V146.812L252.922 146.176L252.977 145.358L252.794 144.539L252.357 143.903H251.848L251.41 146.922L249.717 148.94L247.459 149.704L245.383 149.195L243.362 147.558L238.336 142.011L236.26 140.374L229.031 136.028L207.653 113.949L206.141 113.003L205.395 113.058L203.883 112.112L201.552 111.112L194.014 109.093L191.428 108.711L191.555 107.638L192.994 106.565L194.25 106.056L195.58 105.874H196.909L198.293 106.056L202.372 107.566L204.448 108.002H207.143L208.782 107.875L212.678 106.365L214.754 106.056L219.161 106.183L220.235 106.002L224.515 104.419L225.516 104.292L226.591 104.347L227.665 104.528L230.488 105.656L231.362 106.22L231.398 106.311Z" fill="#E6E7E8" fill-opacity="0.4" stroke="white" stroke-miterlimit="10"/>
<path d="M181.54 133.426L179.901 133.172L181.54 135.627L187.003 141.119L181.03 155.178L180.848 156.178L180.793 157.251L180.538 157.815L180.028 158.251L178.899 158.433L177.643 158.815L167.518 164.999L158.596 167.654L155.573 168.654L149.473 169.654L143.5 169.709L143.554 164.853L142.17 162.962L141.296 162.198L140.859 161.307L141.369 159.67L143.19 157.524L153.005 148.194L154.335 146.175L154.899 144.102L155.154 141.829L155.099 139.992L154.917 138.919L154.353 137.973L151.767 135.572L150.073 134.19L146.104 130.026L154.79 126.934L163.84 124.97L169.121 123.078L170.559 124.333L176.532 128.189L179.227 130.589L181.558 133.372L181.54 133.426Z" fill="#E6E7E8" fill-opacity="0.4" stroke="white" stroke-miterlimit="10"/>
<path d="M184.125 198.572L174.875 202.355L156.009 209.411L153.879 211.248L150.164 215.285L147.833 217.049L146.959 218.177L146.577 219.687L146.322 219.941L145.885 217.795L145.32 216.849L143.991 215.595L141.041 214.703L139.967 214.267L139.093 213.267L138.273 211.757L137.071 207.283V205.574L137.126 204.755L136.998 204.064L136.489 203.628L134.977 203.5L134.158 202.864L133.976 201.918V200.154L134.977 198.008L135.924 196.553L136.744 195.553L136.998 194.862L136.871 194.298L136.052 193.48L135.105 192.716L134.467 191.952L134.413 191.315L135.105 190.242L135.797 189.606L135.979 188.351L133.848 185.441L135.105 184.75L135.487 183.804L135.232 183.368L134.103 181.913L133.721 180.785L134.03 179.785L135.596 177.457L136.416 175.948L136.234 174.238L134.904 169.691L135.214 168.564L136.088 168.127L137.599 168.382L143.445 169.764L149.417 169.71L155.518 168.709L158.541 167.709L159.232 180.822L159.979 182.531L161.108 184.423L163.311 184.732L164.186 185.041L165.952 186.369L167.281 186.932L169.048 187.369L172.762 187.751L174.092 187.569L175.913 186.678L177.042 186.496L178.371 186.805L180.192 187.878L181.066 189.133L184.089 198.59L184.125 198.572Z" fill="#E6E7E8" fill-opacity="0.4" stroke="white" stroke-miterlimit="10"/>
<path d="M133.888 185.458L136.018 188.368L135.836 189.623L135.144 190.26L134.452 191.333L134.507 191.969L135.144 192.733L136.091 193.497L136.911 194.315L137.038 194.879L136.783 195.57L135.964 196.571L135.017 198.026L134.015 200.172V201.936L134.197 202.881L135.017 203.518L136.528 203.645L137.038 204.082L137.166 204.773L137.111 205.591V207.301L138.313 211.775L139.132 213.284L140.006 214.284L141.081 214.721L144.031 215.612L145.36 216.867L145.924 217.813L146.361 219.959L145.287 220.268L144.85 220.577V222.414L138.568 234.526L136.929 236.927L135.035 239.073L132.14 241.401L128.552 241.91L125.73 243.11L123.217 246.129L120.831 250.094L118.701 252.367L112.983 253.877L97.7597 258.296L95.7385 257.987L94.2271 256.914L88.8734 256.096L86.8521 255.332L86.3423 255.077L86.1602 254.131L86.7975 253.877L87.8719 254.259L89.5107 253.95L93.6626 251.167L94.6095 250.603L95.9934 250.094L96.303 249.148L95.8659 248.257L94.9919 247.821L94.6095 247.439L95.7385 246.748L96.8675 246.802L102.458 247.93L103.714 247.621L105.098 246.929L106.3 245.984L106.865 244.983L104.843 245.929L102.148 246.693H99.4532L97.5048 245.565L97.1224 244.62L97.5048 244.111L98.4517 243.929L99.8356 243.747H101.912L102.549 243.619L103.987 242.546V242.037L103.168 240.528L102.913 238.818L103.35 237.181L97.9418 239.582L94.4274 240.473L92.2968 239.4L90.7854 236.436L91.7323 233.162L92.6792 230.143L94.0085 226.178L93.7536 222.832L93.6261 216.721L93.9357 209.21L94.6277 203.973L95.1922 191.224V185.931L95.7567 176.038L95.8841 174.328L99.2165 176.656L100.346 176.711L102.676 175.51L104.625 175.82L105.626 175.692L106.318 175.51L106.701 175.074L107.447 174.692L108.321 174.819L109.705 175.074L112.091 174.892L113.529 175.401L117.554 177.984L130.574 184.549L133.906 185.495L133.888 185.458Z" fill="#E6E7E8" fill-opacity="0.4" stroke="white" stroke-miterlimit="10"/>
<path d="M252.415 242.038H251.286L251.723 242.547L251.905 243.238L249.884 243.42V244.366L250.758 245.62L251.267 246.748L250.193 246.312L249.319 246.366L247.498 246.748L246.751 247.057L246.569 247.948V249.712L246.824 250.476L246.515 250.785L245.131 250.84L244.694 250.458L243.364 248.748L243.11 248.185L244.056 246.111L246.387 243.838L249.155 241.874L251.541 240.874L252.178 241.128L252.433 242.019L252.415 242.038ZM213.3 166.799L214.429 167.872L219.2 169L220.275 169.764L220.147 171.964L219.583 173.474L218.381 174.292L216.177 174.238V173.728L216.614 172.092L215.285 170.2L213.464 168.618L212.135 167.727L211.497 168.236L212.754 169.873L214.193 171L214.63 171.637L212.936 171.819L212.062 171.055L209.167 166.454L207.036 163.871L206.035 162.289L205.652 160.834L205.343 158.943L204.596 157.561L202.775 155.16L203.285 154.596L203.467 155.033L204.469 155.796L208.548 161.725L212.626 165.763L213.264 166.763L213.3 166.799ZM184.128 198.571L181.106 189.114L180.231 187.86L178.41 186.786L177.081 186.477L175.952 186.659L174.131 187.55L172.802 187.732L169.087 187.35L167.321 186.914L165.991 186.35L164.225 185.022L163.351 184.713L161.148 184.404L160.019 182.513L159.272 180.803L158.58 167.69L167.503 165.035L177.627 158.852L178.884 158.47L180.013 158.288L180.523 157.851L180.778 157.288L180.832 156.215L181.014 155.214L186.987 141.156L201.573 155.796L202.138 157.306L202.447 158.815L203.267 160.579L212.135 173.765L212.699 174.965L213.009 176.347L213.264 179.948L212.881 181.021L209.731 184.422L210.551 185.241L211.297 185.623L211.935 186.059L212.117 187.314L211.807 188.642L210.988 189.278L208.529 189.715L196.839 193.37L184.074 198.608L184.128 198.571Z" fill="#E6E7E8" fill-opacity="0.4" stroke="white" stroke-miterlimit="10"/>
<path d="M195.07 143.521L200.661 140.302L203.611 139.101L206.124 138.847L207.071 138.156L207.125 137.337L206.743 136.137L206.561 135.009L206.743 134.373L207.38 133.809L210.458 132.609L211.332 131.972L211.769 131.154L212.151 130.208L212.843 129.008L213.662 128.189L215.429 127.425L216.376 127.116L219.526 129.444L220.273 130.208L220.782 130.972L221.529 132.427L222.039 133.191L226.373 137.355L226.883 137.61L228.522 139.683L235.933 145.867L238.063 148.267L239.575 151.104L240.321 154.505L241.195 155.506L243.399 155.815L244.4 156.506L244.783 158.143L244.837 159.907L244.455 164.381L243.381 167.345L241.687 169.873L239.557 171.837L237.736 172.965L236.734 173.22L234.968 172.528L234.094 172.91L232.837 173.729L229.323 173.674L228.194 173.11L224.115 169.964L216.703 165.927L200.861 150.85L195.07 143.539V143.521Z" fill="#E6E7E8" fill-opacity="0.4" stroke="white" stroke-miterlimit="10"/>
<path d="M191.488 108.767L194.074 109.148L201.612 111.167L203.943 112.167L205.455 113.113L205.018 113.495L205.4 113.931L206.911 114.695L208.86 116.841L209.552 118.096L210.116 121.006L210.936 122.261L211.883 123.389L213.704 125.098L216.399 127.117L215.452 127.426L213.685 128.19L212.866 129.008L212.174 130.209L211.792 131.154L211.355 131.973L210.481 132.609L207.403 133.81L206.766 134.373L206.584 135.01L206.766 136.137L207.148 137.338L207.094 138.156L206.147 138.847L203.634 139.102L200.684 140.302L195.093 143.521L192.835 140.739L189.63 137.72L187.172 135.883L184.222 135.119L181.582 133.409L179.251 130.627L176.556 128.226L170.583 124.371L169.145 123.116L170.528 121.352L170.401 120.151L170.146 119.333L170.456 118.642L171.202 118.005L172.149 117.696L172.969 117.878L175.609 119.642L177.685 120.642L179.943 121.333L182.583 121.77L184.095 121.588L185.224 121.079L186.917 119.879L187.664 118.878L188.101 117.496L188.155 116.041L188.101 115.223L187.791 114.532L186.844 113.713L185.515 113.149L185.26 112.84L184.75 110.567L182.492 107.603L186.644 108.548L191.488 108.73V108.767Z" fill="#E6E7E8" fill-opacity="0.4" stroke="white" stroke-miterlimit="10"/>
</g>
</g>
<defs>
<clipPath id="clip0_167_10719">
<rect width="280" height="280" fill="white"/>
</clipPath>
</defs>
</svg>
