<svg width="624" height="280" viewBox="0 0 624 280" fill="none" xmlns="http://www.w3.org/2000/svg">
<g clip-path="url(#clip0_167_10842)">
<g opacity="0.1">
<path d="M402.013 26.047H479.251V345.344H372.005V56.0581C372.005 39.4901 385.447 26.047 402.013 26.047Z" fill="white"/>
<path d="M333.277 -27H191.373L53.3192 110.703V-27H-23.9182C-40.4847 -27 -53.9268 -13.5566 -53.9268 3.01133V345.344H53.3192V207.713L191.3 345.344H333.205L146.542 159.172L333.205 -27H333.277Z" fill="white"/>
<path d="M870.233 256.617H548.932V345.343H870.233V256.617Z" fill="white"/>
<path d="M578.867 26.047C562.3 26.047 548.858 39.4901 548.858 56.0581V221.229H763.423L793.577 150.234H656.104V114.773H870.16V26.047H578.867Z" fill="white"/>
</g>
</g>
<defs>
<clipPath id="clip0_167_10842">
<rect width="624" height="280" fill="white"/>
</clipPath>
</defs>
</svg>
