<svg width="1701" height="32" viewBox="0 0 1701 32" fill="none" xmlns="http://www.w3.org/2000/svg">
<g clip-path="url(#clip0_2075_4469)">
<g clip-path="url(#clip1_2075_4469)">
<mask id="path-1-inside-1_2075_4469" fill="white">
<path d="M0 0L1334 0V32L0 32L0 0Z"/>
</mask>
<line x1="0.5" y1="8" x2="0.500001" y2="32" stroke="#CECFD2"/>
<line x1="23.5" y1="8" x2="23.5" y2="32" stroke="#CECFD2"/>
<line x1="46.5" y1="8" x2="46.5" y2="32" stroke="#CECFD2"/>
<line x1="69.5" y1="8" x2="69.5" y2="32" stroke="#CECFD2"/>
<line x1="92.5" y1="8" x2="92.5" y2="32" stroke="#CECFD2"/>
<line x1="115.5" y1="8" x2="115.5" y2="32" stroke="#CECFD2"/>
<line x1="138.5" y1="8" x2="138.5" y2="32" stroke="#CECFD2"/>
<line x1="161.5" y1="8" x2="161.5" y2="32" stroke="#CECFD2"/>
<line x1="184.5" y1="8" x2="184.5" y2="32" stroke="#CECFD2"/>
<line x1="207.5" y1="8" x2="207.5" y2="32" stroke="#CECFD2"/>
<line x1="230.5" y1="8" x2="230.5" y2="32" stroke="#CECFD2"/>
<line x1="253.5" y1="8" x2="253.5" y2="32" stroke="#CECFD2"/>
<line x1="276.5" y1="8" x2="276.5" y2="32" stroke="#CECFD2"/>
<line x1="299.5" y1="8" x2="299.5" y2="32" stroke="#CECFD2"/>
<line x1="322.5" y1="8" x2="322.5" y2="32" stroke="#CECFD2"/>
<line x1="345.5" y1="8" x2="345.5" y2="32" stroke="#CECFD2"/>
<line x1="368.5" y1="8" x2="368.5" y2="32" stroke="#CECFD2"/>
<line x1="391.5" y1="8" x2="391.5" y2="32" stroke="#CECFD2"/>
<line x1="414.5" y1="8" x2="414.5" y2="32" stroke="#CECFD2"/>
<line x1="437.5" y1="7" x2="437.5" y2="32" stroke="#CECFD2"/>
<line x1="460.5" y1="7" x2="460.5" y2="32" stroke="#CECFD2"/>
<line x1="483.5" y1="7" x2="483.5" y2="32" stroke="#CECFD2"/>
<line x1="506.5" y1="7" x2="506.5" y2="32" stroke="#CECFD2"/>
<line x1="529.5" y1="6" x2="529.5" y2="32" stroke="#CECFD2"/>
<line x1="552.5" y1="6" x2="552.5" y2="32" stroke="#CECFD2"/>
<line x1="575.5" y1="6" x2="575.5" y2="32" stroke="#CECFD2"/>
<line x1="598.5" y1="6" x2="598.5" y2="32" stroke="#CECFD2"/>
<line x1="621.5" y1="5" x2="621.5" y2="32" stroke="#CECFD2"/>
<line x1="644.5" y1="5" x2="644.5" y2="32" stroke="#CECFD2"/>
<line x1="667.5" y1="5" x2="667.5" y2="32" stroke="#CECFD2"/>
<line x1="690.5" y1="5" x2="690.5" y2="32" stroke="#CECFD2"/>
<line x1="713.5" y1="5" x2="713.5" y2="32" stroke="#CECFD2"/>
<line x1="736.5" y1="5" x2="736.5" y2="32" stroke="#CECFD2"/>
<line x1="759.5" y1="5" x2="759.5" y2="32" stroke="#CECFD2"/>
<line x1="782.5" y1="5" x2="782.5" y2="32" stroke="#CECFD2"/>
<line x1="805.5" y1="5" x2="805.5" y2="32" stroke="#CECFD2"/>
<line x1="828.5" y1="5" x2="828.5" y2="32" stroke="#CECFD2"/>
<line x1="851.5" y1="5" x2="851.5" y2="32" stroke="#CECFD2"/>
<line x1="874.5" y1="5" x2="874.5" y2="32" stroke="#CECFD2"/>
<line x1="897.5" y1="4" x2="897.5" y2="32" stroke="#CECFD2"/>
<line x1="920.5" y1="4" x2="920.5" y2="32" stroke="#CECFD2"/>
<line x1="943.5" y1="4" x2="943.5" y2="32" stroke="#CECFD2"/>
<line x1="966.5" y1="4" x2="966.5" y2="32" stroke="#CECFD2"/>
<line x1="989.5" y1="3" x2="989.5" y2="32" stroke="#CECFD2"/>
<line x1="1012.5" y1="3" x2="1012.5" y2="32" stroke="#CECFD2"/>
<line x1="1035.5" y1="3" x2="1035.5" y2="32" stroke="#CECFD2"/>
<line x1="1058.5" y1="3" x2="1058.5" y2="32" stroke="#CECFD2"/>
<line x1="1081.5" y1="2" x2="1081.5" y2="32" stroke="#CECFD2"/>
<line x1="1104.5" y1="2" x2="1104.5" y2="32" stroke="#CECFD2"/>
<line x1="1127.5" y1="2" x2="1127.5" y2="32" stroke="#CECFD2"/>
<line x1="1150.5" y1="2" x2="1150.5" y2="32" stroke="#CECFD2"/>
<line x1="1173.5" y1="1" x2="1173.5" y2="32" stroke="#CECFD2"/>
<line x1="1196.5" y1="1" x2="1196.5" y2="32" stroke="#CECFD2"/>
<line x1="1219.5" y1="1" x2="1219.5" y2="32" stroke="#CECFD2"/>
<line x1="1242.5" y1="1" x2="1242.5" y2="32" stroke="#CECFD2"/>
<line x1="1265.5" y1="-2.18557e-08" x2="1265.5" y2="32" stroke="#CECFD2"/>
<line x1="1288.5" y1="-2.18557e-08" x2="1288.5" y2="32" stroke="#CECFD2"/>
<line x1="1311.5" y1="-2.18557e-08" x2="1311.5" y2="32" stroke="#CECFD2"/>
</g>
<path d="M1334 32V31L0 31L0 32L0 33L1334 33V32Z" fill="#CECFD2" mask="url(#path-1-inside-1_2075_4469)"/>
<g clip-path="url(#clip2_2075_4469)">
<mask id="path-61-inside-2_2075_4469" fill="white">
<path d="M2644 0L1310 0V32L2644 32V0Z"/>
</mask>
<line y1="-0.5" x2="28" y2="-0.5" transform="matrix(-4.37114e-08 1 1 4.37114e-08 1701 4)" stroke="#CECFD2"/>
<line y1="-0.5" x2="28" y2="-0.5" transform="matrix(-4.37114e-08 1 1 4.37114e-08 1678 4)" stroke="#CECFD2"/>
<line y1="-0.5" x2="29" y2="-0.5" transform="matrix(-4.37114e-08 1 1 4.37114e-08 1655 3)" stroke="#CECFD2"/>
<line y1="-0.5" x2="29" y2="-0.5" transform="matrix(-4.37114e-08 1 1 4.37114e-08 1632 3)" stroke="#CECFD2"/>
<line y1="-0.5" x2="29" y2="-0.5" transform="matrix(-4.37114e-08 1 1 4.37114e-08 1609 3)" stroke="#CECFD2"/>
<line y1="-0.5" x2="29" y2="-0.5" transform="matrix(-4.37114e-08 1 1 4.37114e-08 1586 3)" stroke="#CECFD2"/>
<line y1="-0.5" x2="30" y2="-0.5" transform="matrix(-4.37114e-08 1 1 4.37114e-08 1563 2)" stroke="#CECFD2"/>
<line y1="-0.5" x2="30" y2="-0.5" transform="matrix(-4.37114e-08 1 1 4.37114e-08 1540 2)" stroke="#CECFD2"/>
<line y1="-0.5" x2="30" y2="-0.5" transform="matrix(-4.37114e-08 1 1 4.37114e-08 1517 2)" stroke="#CECFD2"/>
<line y1="-0.5" x2="30" y2="-0.5" transform="matrix(-4.37114e-08 1 1 4.37114e-08 1494 2)" stroke="#CECFD2"/>
<line y1="-0.5" x2="31" y2="-0.5" transform="matrix(-4.37114e-08 1 1 4.37114e-08 1471 1)" stroke="#CECFD2"/>
<line y1="-0.5" x2="31" y2="-0.5" transform="matrix(-4.37114e-08 1 1 4.37114e-08 1448 1)" stroke="#CECFD2"/>
<line y1="-0.5" x2="31" y2="-0.5" transform="matrix(-4.37114e-08 1 1 4.37114e-08 1425 1)" stroke="#CECFD2"/>
<line y1="-0.5" x2="31" y2="-0.5" transform="matrix(-4.37114e-08 1 1 4.37114e-08 1402 1)" stroke="#CECFD2"/>
<line y1="-0.5" x2="32" y2="-0.5" transform="matrix(-4.37114e-08 1 1 4.37114e-08 1379 0)" stroke="#CECFD2"/>
<line y1="-0.5" x2="32" y2="-0.5" transform="matrix(-4.37114e-08 1 1 4.37114e-08 1356 0)" stroke="#CECFD2"/>
<line y1="-0.5" x2="32" y2="-0.5" transform="matrix(-4.37114e-08 1 1 4.37114e-08 1333 0)" stroke="#CECFD2"/>
</g>
<path d="M1310 32V31L2644 31V32V33L1310 33V32Z" fill="#CECFD2" mask="url(#path-61-inside-2_2075_4469)"/>
</g>
<defs>
<clipPath id="clip0_2075_4469">
<rect width="1701" height="32" fill="white"/>
</clipPath>
<clipPath id="clip1_2075_4469">
<path d="M0 0L1334 0V32L0 32L0 0Z" fill="white"/>
</clipPath>
<clipPath id="clip2_2075_4469">
<path d="M2644 0L1310 0V32L2644 32V0Z" fill="white"/>
</clipPath>
</defs>
</svg>
