<svg width="24" height="24" viewBox="0 0 24 24" fill="none" xmlns="http://www.w3.org/2000/svg">
<path d="M19.3094 6.96924L12.3655 0.17152C12.1978 -0.0302938 11.8983 -0.0579951 11.6965 0.109612C11.674 0.128289 11.6533 0.148995 11.6346 0.17152L4.69072 6.96924C4.46869 7.17504 4.45554 7.52194 4.66134 7.74397C4.7634 7.85407 4.9061 7.91752 5.05622 7.91948H8.3454V16.7272C8.4078 17.0953 8.70551 17.3781 9.07633 17.4216H14.9238C15.2162 17.4216 15.2893 17.0562 15.2893 16.7272V7.91948H18.9439C19.2467 7.91549 19.4889 7.66688 19.4849 7.36413C19.4829 7.21401 19.4195 7.0713 19.3094 6.96924Z" fill="white"/>
<path d="M14.9238 18.5176H9.07636C8.7736 18.5176 8.52814 18.763 8.52814 19.0658C8.52814 19.3686 8.7736 19.614 9.07636 19.614H14.9238C15.2266 19.614 15.4721 19.3686 15.4721 19.0658C15.4721 18.763 15.2267 18.5176 14.9238 18.5176Z" fill="white"/>
<path d="M14.9238 20.7109H9.07636C8.7736 20.7109 8.52814 20.9564 8.52814 21.2592C8.52814 21.5619 8.7736 21.8074 9.07636 21.8074H14.9238C15.2266 21.8074 15.4721 21.5619 15.4721 21.2592C15.4721 20.9564 15.2267 20.7109 14.9238 20.7109Z" fill="white"/>
<path d="M14.9238 22.9033H9.07636C8.7736 22.9033 8.52814 23.1488 8.52814 23.4515C8.52814 23.7543 8.7736 23.9998 9.07636 23.9998H14.9238C15.2266 23.9998 15.4721 23.7543 15.4721 23.4515C15.4721 23.1488 15.2267 22.9033 14.9238 22.9033Z" fill="white"/>
</svg>
