<svg width="214" height="44" viewBox="0 0 214 44" fill="none" xmlns="http://www.w3.org/2000/svg">
<path d="M54.8661 6.26959H63.0062V43.9906H50.3354V10.8002C50.3354 8.29993 52.3657 6.26959 54.8661 6.26959Z" fill="#283377"/>
<path d="M45.7483 0.00939969H28.9793L12.6708 16.2709V0H3.54368C1.58854 0 0 1.58855 0 3.54369V43.9906H12.6708V27.7291L28.9793 43.9906H45.7483L23.6966 21.9953L45.7577 0L45.7483 0.00939969Z" fill="#283377"/>
<path d="M109.196 33.5193H71.2309V44H109.196V33.5193Z" fill="#283377"/>
<path d="M74.7746 6.26959C72.8194 6.26959 71.2309 7.85814 71.2309 9.81328V29.3271H100.802V20.9331H83.9017V16.7409H109.196V6.26019H74.7746V6.26959Z" fill="#283377"/>
<path d="M195.589 0.00939941H185.936C183.943 0.00939941 182.147 1.20316 181.367 3.0267L163.978 43.9906H174.054C175.756 43.9906 177.297 42.9754 177.965 41.4057L189.113 15.1429L196.914 33.5193H184.638L189.084 44H210.976C212.527 44 213.58 42.4115 212.969 40.9827L195.58 0.00939941H195.589Z" fill="#283377"/>
<path d="M146.729 6.26959V27.0711L130.092 6.26959H120.965C119.01 6.26959 117.421 7.85814 117.421 9.81328V43.9906H130.092V23.1891L146.729 43.9906H155.856C157.812 43.9906 159.4 42.402 159.4 40.4469V6.26959H146.729Z" fill="#283377"/>
</svg>
