<svg width="16" height="16" viewBox="0 0 16 16" fill="none" xmlns="http://www.w3.org/2000/svg">
<path d="M8.00149 4.20403L2.29517 8.90829C2.29517 8.91493 2.2935 8.9247 2.29016 8.93801C2.28689 8.95122 2.28516 8.96081 2.28516 8.96762V13.7312C2.28516 13.9032 2.34804 14.0522 2.47376 14.1777C2.59946 14.3033 2.7483 14.3665 2.92033 14.3665H6.73108V10.5556H9.27193V14.3667H13.0826C13.2546 14.3667 13.4037 14.3036 13.5292 14.1777C13.6549 14.0524 13.718 13.9032 13.718 13.7312V8.96762C13.718 8.94121 13.7144 8.92125 13.708 8.90829L8.00149 4.20403Z" fill="#283377"/>
<path d="M15.8896 7.83643L13.7163 6.03023V1.98113C13.7163 1.88857 13.6866 1.81244 13.6269 1.75286C13.5676 1.69335 13.4915 1.6636 13.3987 1.6636H11.4933C11.4007 1.6636 11.3246 1.69335 11.265 1.75286C11.2055 1.81244 11.1758 1.8886 11.1758 1.98113V3.91633L8.75431 1.89173C8.54283 1.7197 8.29138 1.63371 8.00023 1.63371C7.70911 1.63371 7.45769 1.7197 7.246 1.89173L0.110278 7.83643C0.0441299 7.88927 0.00787516 7.96039 0.0011317 8.04972C-0.005577 8.13899 0.0175385 8.21695 0.0705476 8.28307L0.685836 9.01748C0.738845 9.07699 0.808226 9.11338 0.894257 9.12669C0.973684 9.13337 1.05311 9.11015 1.13254 9.05724L8.00002 3.3308L14.8676 9.05721C14.9206 9.10337 14.99 9.12642 15.076 9.12642H15.1058C15.1917 9.11335 15.2609 9.07671 15.3142 9.01734L15.9296 8.28303C15.9825 8.21678 16.0057 8.13895 15.9988 8.04958C15.992 7.96049 15.9556 7.88937 15.8896 7.83643Z" fill="#283377"/>
</svg>
