<svg width="16" height="16" viewBox="0 0 16 16" fill="none" xmlns="http://www.w3.org/2000/svg">
<g clip-path="url(#clip0_347_10294)">
<path fill-rule="evenodd" clip-rule="evenodd" d="M14.6654 14.0073H1.33203C1.05603 14.0073 0.832031 14.232 0.832031 14.5073C0.832031 14.7833 1.05603 15.0073 1.33203 15.0073H14.6654C14.9414 15.0073 15.1654 14.7833 15.1654 14.5073C15.1654 14.232 14.9414 14.0073 14.6654 14.0073Z" fill="#283377"/>
<path fill-rule="evenodd" clip-rule="evenodd" d="M9.83464 14.5074V2.1587C9.83464 1.77204 9.64264 1.41004 9.32197 1.1927C9.0013 0.976037 8.59397 0.932037 8.23464 1.07604L2.9013 3.20937C2.45864 3.38604 2.16797 3.81537 2.16797 4.2927V14.5074C2.16797 14.784 2.39197 15.0074 2.66797 15.0074H9.33464C9.61064 15.0074 9.83464 14.784 9.83464 14.5074ZM4.66797 13.0074H7.33464C7.61064 13.0074 7.83464 12.7834 7.83464 12.5074C7.83464 12.232 7.61064 12.0074 7.33464 12.0074H4.66797C4.39197 12.0074 4.16797 12.232 4.16797 12.5074C4.16797 12.7834 4.39197 13.0074 4.66797 13.0074ZM4.66797 10.674H7.33464C7.61064 10.674 7.83464 10.45 7.83464 10.174C7.83464 9.8987 7.61064 9.67404 7.33464 9.67404H4.66797C4.39197 9.67404 4.16797 9.8987 4.16797 10.174C4.16797 10.45 4.39197 10.674 4.66797 10.674ZM4.66797 8.3407H7.33464C7.61064 8.3407 7.83464 8.1167 7.83464 7.8407C7.83464 7.56537 7.61064 7.3407 7.33464 7.3407H4.66797C4.39197 7.3407 4.16797 7.56537 4.16797 7.8407C4.16797 8.1167 4.39197 8.3407 4.66797 8.3407ZM4.66797 6.00737H7.33464C7.61064 6.00737 7.83464 5.78337 7.83464 5.50737C7.83464 5.23204 7.61064 5.00737 7.33464 5.00737H4.66797C4.39197 5.00737 4.16797 5.23204 4.16797 5.50737C4.16797 5.78337 4.39197 6.00737 4.66797 6.00737Z" fill="#283377"/>
<path fill-rule="evenodd" clip-rule="evenodd" d="M10.4987 4.67395V14.5073C10.4987 14.6866 10.4587 14.856 10.3867 15.0073H13.3321C13.6081 15.0073 13.8321 14.784 13.8321 14.5073V5.84062C13.8321 5.19662 13.3094 4.67395 12.6654 4.67395H10.4987Z" fill="#283377"/>
</g>
<defs>
<clipPath id="clip0_347_10294">
<rect width="16" height="16" fill="white"/>
</clipPath>
</defs>
</svg>
