<svg preserveAspectRatio="none" width="100%" height="100%" overflow="visible" style="display: block;" viewBox="0 0 16 16" fill="none" xmlns="http://www.w3.org/2000/svg">
<g id="6244710 1" clip-path="url(#clip0_0_13)">
<path id="Vector" fill-rule="evenodd" clip-rule="evenodd" d="M8 0C12.4183 0 16 3.58172 16 8C16 12.4183 12.4183 16 8 16C3.58172 16 0 12.4183 0 8C0 3.58172 3.58172 0 8 0ZM13.0781 11.1013V5.15556L10.1051 8.12841L13.0781 11.1013ZM3.557 11.2224H12.4432L9.72731 8.50653L8.69222 9.54147C8.64203 9.59152 8.57404 9.61962 8.50316 9.61959H7.49691C7.4618 9.61963 7.42703 9.61275 7.39459 9.59934C7.36214 9.58594 7.33266 9.56627 7.30781 9.54147L6.27275 8.50653L3.55687 11.2224H3.557ZM2.92188 5.15538V11.1014L5.89491 8.12841L2.92188 5.15538ZM12.7002 4.77759H3.3L7.60763 9.08522H8.39253L12.7002 4.77759Z" fill="var(--fill-0, white)"/>
</g>
<defs>
<clipPath id="clip0_0_13">
<rect width="16" height="16" fill="white"/>
</clipPath>
</defs>
</svg>
