<svg width="16" height="16" viewBox="0 0 16 16" fill="none" xmlns="http://www.w3.org/2000/svg">
<g clip-path="url(#clip0_347_10322)">
<path d="M3.78125 12.2501C5.849 12.2501 7.53125 10.3264 7.53125 8.00009C7.53125 6.1666 6.48511 5.10275 6.43164 5.00815C6.4585 4.85947 6.59375 4.40671 6.59375 3.78134C6.59375 1.71359 5.33215 9.15527e-05 3.78125 9.15527e-05C2.23035 9.15527e-05 0.9375 1.71359 0.9375 3.78134C0.9375 4.40598 1.07349 4.86398 1.09961 5.00815C1.04663 5.1019 0 6.13303 0 8.00009C0 10.3264 1.7135 12.2501 3.78125 12.2501Z" fill="#283377"/>
<path d="M0.46875 16.0001H15.5312C15.7903 16.0001 16 15.7904 16 15.5313C16 15.2723 15.7903 15.0626 15.5312 15.0626H15.0625V14.1251H15.5312C15.7903 14.1251 16 13.9154 16 13.6563C16 13.3973 15.7903 13.1876 15.5312 13.1876H15.0625V11.7813C15.0625 11.5223 14.8528 11.3126 14.5938 11.3126H11.75C11.491 11.3126 11.2812 11.5223 11.2812 11.7813V13.1876H10.8125C10.5535 13.1876 10.3438 13.3973 10.3438 13.6563C10.3438 13.9154 10.5535 14.1251 10.8125 14.1251H11.2812V15.0626H9.40625V13.0837C9.10327 13.1516 8.78979 13.1876 8.46875 13.1876C8.15259 13.1876 7.83984 13.1478 7.53125 13.0763V15.0626H4.71875V13.0837C4.41577 13.1516 4.10229 13.1876 3.78125 13.1876C3.46021 13.1876 3.14673 13.1516 2.84375 13.0837V15.0626H0.46875C0.209717 15.0626 0 15.2723 0 15.5313C0 15.7904 0.209717 16.0001 0.46875 16.0001ZM12.2188 14.1251H14.125V15.0626H12.2188V14.1251Z" fill="#283377"/>
<path d="M7.43872 4.78525C8.28699 5.98911 8.47009 7.17978 8.47009 8.00009C8.47009 9.51889 7.86646 10.9134 6.91333 11.8579C7.38892 12.1039 7.91321 12.2501 8.47009 12.2501C10.5378 12.2501 12.2201 10.3264 12.2201 8.00009C12.2201 6.13303 11.1735 5.1019 11.1205 5.00815C11.1466 4.86398 11.2826 4.40598 11.2826 3.78134C11.2826 1.71359 10.021 9.15527e-05 8.47009 9.15527e-05C7.79932 9.15527e-05 7.19092 0.327728 6.70703 0.852264C7.2157 1.65244 7.53259 2.68234 7.53259 3.78134C7.53259 4.186 7.48596 4.53073 7.43872 4.78525Z" fill="#283377"/>
</g>
<defs>
<clipPath id="clip0_347_10322">
<rect width="16" height="16" fill="white"/>
</clipPath>
</defs>
</svg>
