<svg preserveAspectRatio="none" width="100%" height="100%" overflow="visible" style="display: block;" viewBox="0 0 16 16" fill="none" xmlns="http://www.w3.org/2000/svg">
<g id="&#229;&#155;&#190;&#229;&#177;&#130;_x0020_1">
<path id="Vector" fill-rule="evenodd" clip-rule="evenodd" d="M8 16C3.58243 16 0 12.4176 0 8C0 3.58243 3.58243 0 8 0C12.4176 0 16 3.58243 16 8C16 12.4176 12.4176 16 8 16ZM8 2.79647C10.1885 2.79647 11.9625 4.57052 11.9625 6.75899C11.9625 8.9474 8 13.2035 8 13.2035C8 13.2035 4.03748 8.9474 4.03748 6.75899C4.03748 4.57052 5.81153 2.79647 8 2.79647ZM8 5.18463C8.82973 5.18463 9.50261 5.85751 9.50261 6.68731C9.50261 7.51704 8.82973 8.18992 8 8.18992C7.17027 8.18992 6.49739 7.51704 6.49739 6.68731C6.49739 5.85751 7.17027 5.18463 8 5.18463Z" fill="var(--fill-0, white)"/>
</g>
</svg>
