<svg width="16" height="16" viewBox="0 0 16 16" fill="none" xmlns="http://www.w3.org/2000/svg">
<g clip-path="url(#clip0_217_47382)">
<path d="M15.1982 0.138039L12.0079 3.32833L13.3262 4.64667C13.5097 4.83009 13.5097 5.12744 13.3262 5.31086C13.1429 5.49424 12.8455 5.49427 12.6621 5.31086L11.3437 3.99248L10.004 5.33215L11.3224 6.65049C11.5058 6.83391 11.5058 7.13126 11.3224 7.31468C11.139 7.49806 10.8416 7.49809 10.6582 7.31468L9.3398 5.9963L8.00013 7.33597L9.31848 8.65431C9.50189 8.83773 9.50189 9.13508 9.31848 9.31849C9.1351 9.50188 8.83771 9.50191 8.6543 9.31849L7.33592 8.00012L5.99625 9.33979L7.3146 10.6581C7.49801 10.8415 7.49801 11.1389 7.3146 11.3223C7.13121 11.5057 6.83383 11.5057 6.65041 11.3223L5.33204 10.0039L3.99237 11.3436L5.31072 12.662C5.49413 12.8454 5.49413 13.1427 5.31072 13.3261C5.12733 13.5095 4.82995 13.5096 4.64653 13.3261L3.32815 12.0078L0.137992 15.1982C-0.157012 15.4932 0.0522649 16 0.470068 16H15.5303C15.7896 16 15.9999 15.7897 15.9999 15.5303V0.470146C15.9999 0.0529382 15.4936 -0.157372 15.1982 0.138039ZM12.9629 12.4933C12.9629 12.7526 12.7526 12.9629 12.4932 12.9629H8.23502C7.81803 12.9629 7.60732 12.4568 7.90295 12.1611L12.1611 7.90296C12.4562 7.60793 12.9629 7.81727 12.9629 8.23507V12.4933Z" fill="#283377"/>
</g>
<defs>
<clipPath id="clip0_217_47382">
<rect width="16" height="16" fill="white"/>
</clipPath>
</defs>
</svg>
