<svg width="16" height="16" viewBox="0 0 16 16" fill="none" xmlns="http://www.w3.org/2000/svg">
<path d="M3.21094 15.9984V0.0090625C3.21094 0.006 3.21134 0.00303125 3.21141 0H2.41431C2.05391 0 1.76172 0.292187 1.76172 0.652594V15.3474C1.76172 15.7078 2.05391 16 2.41431 16H3.21103C3.21103 15.9995 3.21094 15.999 3.21094 15.9984Z" fill="#283377"/>
<path d="M11.7943 0H4.20703C4.20709 0.00303125 4.2075 0.006 4.2075 0.0090625V15.9984C4.2075 15.999 4.20744 15.9995 4.20741 16H11.7939C11.7939 15.9995 11.7938 15.999 11.7938 15.9984V0.0090625C11.7938 0.006 11.7942 0.00303125 11.7943 0ZM8.45844 14.0791C8.45844 14.3538 8.23569 14.5766 7.96094 14.5766C7.68619 14.5766 7.46344 14.3538 7.46344 14.0791V12.6432C7.46344 12.3685 7.68619 12.1457 7.96094 12.1457C8.23569 12.1457 8.45844 12.3685 8.45844 12.6432V14.0791ZM8.45844 10.4644C8.45844 10.7391 8.23569 10.9619 7.96094 10.9619C7.68619 10.9619 7.46344 10.7391 7.46344 10.4644V9.0285C7.46344 8.75375 7.68619 8.531 7.96094 8.531C8.23569 8.531 8.45844 8.75375 8.45844 9.0285V10.4644ZM8.45844 6.84969C8.45844 7.12444 8.23569 7.34719 7.96094 7.34719C7.68619 7.34719 7.46344 7.12444 7.46344 6.84969V5.41381C7.46344 5.13906 7.68619 4.91631 7.96094 4.91631C8.23569 4.91631 8.45844 5.13906 8.45844 5.41381V6.84969ZM8.45844 3.23497C8.45844 3.50972 8.23569 3.73247 7.96094 3.73247C7.68619 3.73247 7.46344 3.50972 7.46344 3.23497V1.79909C7.46344 1.52434 7.68619 1.30159 7.96094 1.30159C8.23569 1.30159 8.45844 1.52434 8.45844 1.79909V3.23497Z" fill="#283377"/>
<path d="M12.7852 0C12.7852 0.00303125 12.7856 0.006 12.7856 0.0090625V15.9984C12.7856 15.999 12.7856 15.9995 12.7855 16H13.5842C13.9446 16 14.2368 15.7078 14.2368 15.3474V0.652594C14.2368 0.292187 13.9446 0 13.5842 0L12.7852 0Z" fill="#283377"/>
</svg>
