<svg width="16" height="16" viewBox="0 0 16 16" fill="none" xmlns="http://www.w3.org/2000/svg">
<g clip-path="url(#clip0_347_10329)">
<path d="M12.208 4.64375C11.4542 4.2511 10.5327 4.17606 9.75704 4.40729C9.1096 4.59751 8.54506 4.957 8.12798 5.44039C8.11926 5.44214 8.11053 5.44126 8.10181 5.44301C8.10791 5.4465 8.11228 5.44999 8.11838 5.45435C8.10966 5.46482 8.10093 5.47529 8.09308 5.48576C8.08959 5.4814 8.0861 5.47704 8.08261 5.47355C8.10617 5.42643 8.13409 5.38193 8.15939 5.33568C8.67071 4.82611 9.16807 4.39944 9.68636 4.08968C10.2212 3.76771 10.7622 3.59494 11.3329 3.5548C11.9035 3.51379 12.5143 3.6028 13.1548 3.76422C13.797 3.92128 14.454 4.15599 15.1904 4.3497C14.7821 3.7075 14.2263 3.18833 13.5588 2.79656C12.8939 2.41263 12.0859 2.16221 11.236 2.22503C10.3861 2.27826 9.5581 2.69185 9.01362 3.28868C8.83999 3.47889 8.68991 3.68394 8.56164 3.89859C8.57386 3.7712 8.59044 3.64381 8.58869 3.51379C8.5852 2.70581 8.24578 1.8446 7.65157 1.2373C7.0626 0.621282 6.29475 0.266153 5.54435 0.106476C4.78698 -0.0497107 4.02524 -0.0366224 3.29229 0.166682C3.9694 0.514831 4.61421 0.78096 5.19708 1.09508C5.77994 1.40396 6.29388 1.746 6.69002 2.15872C7.08703 2.57057 7.37322 3.06094 7.55472 3.65864C7.70218 4.1368 7.7842 4.66644 7.83044 5.24407C7.71177 4.65509 7.42034 4.09666 6.99541 3.62461C6.45617 3.02255 5.63248 2.60198 4.78436 2.54177C3.93624 2.47109 3.12564 2.71454 2.45813 3.09235C1.78714 3.47802 1.22696 3.99283 0.8125 4.63066C1.54981 4.44219 2.20946 4.21446 2.8534 4.06263C3.49385 3.90732 4.10551 3.82355 4.67616 3.8698C5.24594 3.9143 5.78518 4.09142 6.31744 4.41863C6.59491 4.58704 6.86627 4.79208 7.13676 5.02244C6.85056 4.99364 6.54604 5.04338 6.28602 5.18037C5.94049 5.35488 5.68571 5.64195 5.5173 5.94734C5.35065 6.25623 5.25641 6.5878 5.24769 6.93333C5.48764 6.68552 5.68832 6.44034 5.9021 6.22831C6.11239 6.0154 6.32878 5.8374 6.56 5.71874C6.79036 5.60094 7.04165 5.54073 7.32523 5.54073C7.44041 5.53986 7.56257 5.55382 7.6856 5.56953C7.43779 5.90808 7.20918 6.26146 7.00326 6.62706C6.52423 7.48216 6.14292 8.39398 5.82444 9.32412C5.50596 10.2543 5.24943 11.2071 5.04089 12.1704C4.8341 13.1415 4.80966 14.9687 4.70583 16L6.92648 15.9983C6.84271 15.124 6.6778 13.2899 6.69438 12.3702C6.7127 11.4401 6.77727 10.5073 6.90292 9.58414C7.03031 8.66011 7.21878 7.74219 7.51021 6.85305C7.63761 6.46739 7.7903 6.08695 7.96394 5.71612C8.04073 5.69779 8.11489 5.68122 8.18993 5.66376C8.20826 5.66813 8.22571 5.67075 8.2449 5.67511C8.24054 5.66813 8.23443 5.66202 8.2292 5.65591C8.27719 5.64457 8.32605 5.63323 8.37317 5.62275C8.54943 5.74229 8.71347 5.86445 8.84609 5.9997C9.04591 6.19951 9.18115 6.4194 9.26143 6.6672C9.3417 6.91326 9.36875 7.19335 9.36701 7.49264C9.36788 7.79279 9.33647 8.10691 9.33036 8.45332C9.56857 8.20202 9.73697 7.90186 9.83731 7.56506C9.93329 7.23 9.95685 6.84695 9.83557 6.4796C9.72039 6.11138 9.44815 5.79203 9.12618 5.61752C9.05725 5.58 8.98657 5.55033 8.91415 5.52328C9.26143 5.46831 9.59562 5.43777 9.91759 5.44039C10.5423 5.44039 11.0947 5.57215 11.6042 5.83304C12.1138 6.09306 12.5902 6.48484 13.0544 6.9534C13.523 7.42109 13.9654 7.96032 14.4941 8.50829C14.4758 7.74742 14.269 7.01535 13.8999 6.33476C13.53 5.66115 12.968 5.02942 12.208 4.64375Z" fill="#283377"/>
</g>
<defs>
<clipPath id="clip0_347_10329">
<rect width="16" height="16" fill="white"/>
</clipPath>
</defs>
</svg>
