<svg width="16" height="16" viewBox="0 0 16 16" fill="none" xmlns="http://www.w3.org/2000/svg">
<g clip-path="url(#clip0_347_10312)">
<path d="M15.7656 13.9104L14.4341 13.1417V10.5094C14.4341 10.3419 14.3447 10.1872 14.1997 10.1035L11.4514 8.51675L8.46875 10.2388V13.6829L11.2171 15.2696C11.3621 15.3533 11.5408 15.3533 11.6858 15.2696L13.9653 13.9535L15.2968 14.7223C15.521 14.8517 15.8077 14.7749 15.9371 14.5507C16.0666 14.3265 15.9897 14.0398 15.7656 13.9104Z" fill="#283377"/>
<path d="M10.981 4.53138C10.981 4.36391 10.8916 4.20916 10.7466 4.12544L8.46706 2.80932V1.13647C8.46706 0.8776 8.25719 0.667725 7.99831 0.667725C7.73944 0.667725 7.52956 0.8776 7.52956 1.13647V2.80932L5.25 4.12541C5.10497 4.20913 5.01562 4.36388 5.01562 4.53135V7.70482L7.99831 9.42688L10.981 7.70485V4.53138H10.981Z" fill="#283377"/>
<path d="M1.80028 10.1034C1.65525 10.1872 1.56591 10.3419 1.56591 10.5094V13.1416L0.23444 13.9104C0.0102524 14.0398 -0.0665602 14.3265 0.0628773 14.5507C0.192315 14.7749 0.479002 14.8517 0.70319 14.7223L2.03469 13.9535L4.31419 15.2696C4.45922 15.3533 4.63791 15.3533 4.78294 15.2696L7.53125 13.6829V10.2388L4.5486 8.51675L1.80028 10.1034Z" fill="#283377"/>
</g>
<defs>
<clipPath id="clip0_347_10312">
<rect width="16" height="16" fill="white"/>
</clipPath>
</defs>
</svg>
