<svg width="16" height="16" viewBox="0 0 16 16" fill="none" xmlns="http://www.w3.org/2000/svg">
<g clip-path="url(#clip0_347_10281)">
<path d="M16.001 3.99344V12.0066C16.0002 12.2781 15.7803 12.498 15.5088 12.4988H14.4883C14.2168 12.4991 13.9964 12.2793 13.9961 12.0079C13.9961 12.0074 13.9961 12.007 13.9961 12.0065V3.99344C13.9957 3.72195 14.2155 3.50159 14.487 3.50124H14.4883H15.5088C15.7803 3.50204 16.0002 3.72192 16.001 3.99344Z" fill="#283377"/>
<path d="M2.33203 4.66616H13.6659V11.3339H2.33203V4.66616Z" fill="#283377"/>
<path d="M2.00494 3.99344V12.0066C2.00529 12.278 1.78552 12.4984 1.51403 12.4988C1.51359 12.4988 1.51315 12.4988 1.51271 12.4988H0.492199C0.220679 12.498 0.000795294 12.2781 0 12.0066V3.99344C0.000795294 3.72192 0.220709 3.50204 0.492199 3.50124H1.51271C1.7842 3.50089 2.00455 3.72065 2.00491 3.99214C2.00494 3.99256 2.00494 3.993 2.00494 3.99344Z" fill="#283377"/>
</g>
<defs>
<clipPath id="clip0_347_10281">
<rect width="16" height="16" fill="white"/>
</clipPath>
</defs>
</svg>
